<?xml version="1.0" standalone="no"?>
<!DOCTYPE svg PUBLIC "-//W3C//DTD SVG 20010904//EN"
 "http://www.w3.org/TR/2001/REC-SVG-20010904/DTD/svg10.dtd">
<svg version="1.0" xmlns="http://www.w3.org/2000/svg"
 width="192.000000pt" height="192.000000pt" viewBox="0 0 192.000000 192.000000"
 preserveAspectRatio="xMidYMid meet">
<metadata>
Created by potrace 1.14, written by Peter Selinger 2001-2017
</metadata>
<g transform="translate(0.000000,192.000000) scale(0.100000,-0.100000)"
fill="#000000" stroke="none">
<path d="M817 1910 c-300 -47 -559 -232 -707 -504 -39 -72 -87 -214 -97 -287
-13 -91 -7 -298 11 -369 9 -36 18 -72 20 -81 13 -50 74 -174 121 -243 146
-220 396 -379 652 -415 152 -21 361 1 480 51 15 6 30 12 33 12 24 6 146 75
192 109 107 81 171 148 239 252 40 61 56 91 100 190 58 131 72 406 30 569 -13
50 -27 97 -31 105 -5 9 -18 39 -30 66 -94 216 -317 418 -550 499 -131 46 -334
66 -463 46z"/>
</g>
</svg>
